<?xml version="1.0" standalone="no"?>
<!DOCTYPE svg PUBLIC "-//W3C//DTD SVG 20010904//EN"
 "http://www.w3.org/TR/2001/REC-SVG-20010904/DTD/svg10.dtd">
<svg version="1.0" xmlns="http://www.w3.org/2000/svg"
 width="260.000000pt" height="280.000000pt" viewBox="0 0 260.000000 280.000000"
 preserveAspectRatio="xMidYMid meet">
<metadata>
Created by potrace 1.16, written by Peter Selinger 2001-2019
</metadata>
<g transform="translate(0.000000,280.000000) scale(0.100000,-0.100000)"
fill="#000000" stroke="none">
<path d="M1600 2050 c0 -13 6 -15 94 -28 223 -34 376 -213 376 -439 0 -90 -16
-157 -62 -253 -54 -114 -176 -237 -289 -293 -215 -105 -446 -81 -589 62 -52
52 -70 62 -70 38 0 -14 79 -93 126 -125 17 -12 65 -33 107 -47 316 -106 701
124 791 472 22 86 21 216 -4 294 -48 157 -169 271 -331 314 -63 17 -149 20
-149 5z"/>
<path d="M1360 1985 c-131 -29 -286 -94 -390 -164 -38 -26 -41 -31 -22 -31 13
0 56 15 95 34 89 42 214 82 304 97 120 19 115 17 111 47 -4 33 -15 35 -98 17z"/>
<path d="M1470 1970 c0 -30 1 -30 53 -30 61 0 165 -16 204 -31 24 -9 26 -12
11 -20 -10 -6 -26 -5 -43 1 -14 5 -34 10 -43 9 -9 0 1 -6 23 -13 l40 -12 -113
-63 c-117 -66 -150 -95 -131 -117 17 -21 51 -1 164 91 l104 86 41 -21 c22 -11
60 -37 83 -58 41 -35 41 -36 12 -3 -16 18 -51 45 -77 60 -36 21 -45 30 -36 39
8 8 19 6 42 -10 90 -61 140 -136 152 -227 8 -62 33 -72 35 -13 3 117 -21 180
-92 247 -84 79 -193 115 -344 115 l-85 0 0 -30z"/>
<path d="M615 1680 c-3 -6 0 -12 7 -15 26 -10 533 0 531 10 -4 14 -529 19
-538 5z"/>
<path d="M573 1432 c-10 -6 -73 -184 -73 -206 0 -14 107 -5 140 12 69 34 106
153 58 186 -23 16 -104 22 -125 8z"/>
<path d="M783 1428 c-6 -7 -23 -51 -38 -98 -15 -47 -30 -91 -33 -97 -3 -10 16
-13 76 -13 71 0 80 2 85 20 5 18 0 20 -50 20 -52 0 -55 1 -49 23 3 12 6 25 6
30 0 4 17 7 39 7 22 0 44 6 51 15 11 13 7 15 -29 15 -38 0 -42 2 -39 23 3 19
10 23 63 27 47 4 61 9 63 23 3 15 -5 17 -66 17 -44 0 -73 -5 -79 -12z"/>
<path d="M1210 1368 c0 -106 9 -148 30 -148 24 0 164 214 143 218 -21 5 -44
-19 -83 -87 -19 -34 -38 -61 -42 -61 -4 0 -5 34 -1 75 l6 75 -27 0 c-26 0 -26
-1 -26 -72z"/>
<path d="M1433 1428 c-10 -14 -63 -178 -63 -197 0 -7 27 -11 74 -11 70 0 86 7
86 36 0 2 -25 4 -55 4 -30 0 -55 2 -55 4 0 3 4 16 10 30 7 20 17 25 51 28 57
4 65 28 10 28 -41 0 -46 5 -35 34 5 12 20 16 64 16 49 0 58 3 63 20 5 19 0 20
-68 20 -46 0 -76 -5 -82 -12z"/>
<path d="M1616 1418 c-8 -13 -24 -56 -36 -97 -12 -40 -24 -80 -27 -88 -4 -11
0 -14 17 -11 17 2 27 14 38 46 13 40 16 43 46 40 30 -3 31 -4 28 -45 -2 -37 0
-43 17 -43 15 0 23 11 31 41 6 22 9 46 7 52 -3 7 3 21 13 32 51 58 28 95 -60
95 -51 0 -62 -3 -74 -22z"/>
<path d="M1830 1435 c0 -3 7 -35 16 -70 13 -50 14 -71 5 -96 -15 -44 -14 -49
9 -49 14 0 22 11 31 40 7 22 39 72 71 110 55 66 57 70 34 70 -18 0 -34 -12
-58 -45 -37 -50 -48 -55 -48 -22 0 46 -12 67 -36 67 -13 0 -24 -2 -24 -5z"/>
</g>
</svg>
